<svg xmlns="http://www.w3.org/2000/svg" width="49" height="48" viewBox="0 0 49 48" fill="none"><g clip-path="url(#clip0)"><path d="M20.062 14.4C24.162 20.9 20.762 25.3 17.462 27.4C14.162 29.5 8.76199 30.5 4.76199 24C0.661991 17.5 -0.438009 5.8 2.76199 3.8C6.06199 1.8 16.062 7.9 20.062 14.4Z" fill="#F4EFE9"></path><path d="M43.2621 37.3C39.2621 45.4 32.6621 44.7 28.6621 42.7C24.6621 40.7 20.0621 35.9 24.0621 27.8C28.0621 19.7 38.0621 11.4 43.1621 11.4C46.5621 14.5 47.2621 29.3 43.2621 37.3Z" fill="#F4EFE9"></path><path d="M20.0619 14.4C16.0619 7.9 6.06189 1.8 2.76189 3.8C-0.438108 5.8 0.661891 17.5 4.66189 24C7.96189 29.3 12.2619 29.5 15.4619 28.3C16.0619 31.1 16.2619 34.3 16.0619 37.4L17.0619 37.5C17.2619 34.2 17.0619 30.9 16.4619 27.9C16.8619 27.7 17.1619 27.5 17.5619 27.3C20.7619 25.3 24.1619 20.9 20.0619 14.4ZM16.9619 26.5C16.7619 26.7 16.4619 26.8 16.1619 26.9C15.8619 25.6 15.4619 24.3 15.0619 23.1C14.3619 21.1 13.5619 19.4 12.7619 18.1C11.9619 16.8 11.0619 15.9 10.2619 15.5L9.86189 16.4C10.4619 16.6 11.1619 17.4 11.9619 18.6C12.7619 19.8 13.5619 21.5 14.1619 23.4C14.5619 24.6 14.9619 25.9 15.2619 27.3C14.1619 27.8 12.8619 28 11.4619 27.8C9.56189 27.6 7.36189 26.4 5.46189 23.4C3.66189 20.4 2.36189 16 1.96189 12.1C1.76189 10.2 1.86189 8.4 2.06189 7.1C2.36189 5.7 2.76189 4.9 3.26189 4.7C3.76189 4.4 4.56189 4.3 5.96189 4.7C7.36189 5 8.96189 5.7 10.5619 6.8C13.8619 8.8 17.2619 11.9 19.1619 15C21.0619 18 21.1619 20.5 20.4619 22.3C19.9619 24.1 18.4619 25.6 16.9619 26.5Z" fill="black"></path><path d="M43.1619 11.5C38.0619 11.5 28.1619 19.8 24.0619 27.9C20.6619 34.7 23.3619 39.1 26.6619 41.6C24.3619 43.5 21.8619 45 18.9619 45.6L19.1619 46.6C22.2619 45.9 25.0619 44.3 27.5619 42.2C27.9619 42.4 28.2619 42.6 28.6619 42.8C32.6619 44.8 39.2619 45.5 43.2619 37.4C47.2619 29.3 46.5619 14.5 43.1619 11.5ZM42.3619 36.9C40.4619 40.7 38.0619 42.3 35.7619 42.8C33.3619 43.3 30.9619 42.7 29.1619 41.8C28.8619 41.7 28.6619 41.5 28.3619 41.4C29.4619 40.4 30.3619 39.3 31.2619 38.2C34.2619 34.4 36.3619 30.1 37.0619 27.1L36.0619 26.9C35.3619 29.7 33.3619 33.9 30.3619 37.7C29.4619 38.8 28.4619 39.9 27.3619 40.9C26.0619 40 24.8619 38.8 24.1619 37.2C23.1619 35.1 22.9619 32.2 24.8619 28.3C26.7619 24.4 30.1619 20.4 33.7619 17.4C35.5619 15.9 37.3619 14.6 38.9619 13.8C40.4619 13 41.6619 12.6 42.6619 12.5C43.1619 13.1 43.6619 14.3 44.1619 15.9C44.6619 17.7 44.8619 20 44.9619 22.5C45.0619 27.5 44.2619 33.1 42.3619 36.9Z" fill="black"></path></g><defs><clipPath id="clip0"><rect width="48" height="48" fill="white" transform="translate(0.0620117)"></rect></clipPath></defs></svg>